<svg width="33" height="33" viewBox="0 0 33 33" fill="none" xmlns="http://www.w3.org/2000/svg">
<path d="M30.2187 32.9999H2.78752C2.42134 33.0023 2.05833 32.932 1.7195 32.7931C1.38066 32.6542 1.07273 32.4495 0.813504 32.1909C0.554282 31.9322 0.348918 31.6248 0.209291 31.2862C0.0696652 30.9477 -0.00145138 30.5849 5.56325e-05 30.2187V2.78749C-0.00226512 2.4213 0.0680449 2.0583 0.206918 1.71946C0.345792 1.38063 0.550472 1.07269 0.80912 0.813471C1.06777 0.554249 1.37525 0.348885 1.71377 0.209259C2.0523 0.069633 2.41515 -0.00148355 2.78133 2.34586e-05H30.3198C31.7646 2.34586e-05 33 1.23443 33 2.7813V30.2176C33 31.7645 31.7656 32.9989 30.2187 32.9989V32.9999ZM16.5 5.46873H12.375C10.5436 5.46955 8.78747 6.19743 7.49247 7.49243C6.19747 8.78743 5.46958 10.5436 5.46877 12.375V20.625C5.46958 22.4564 6.19747 24.2125 7.49247 25.5075C8.78747 26.8025 10.5436 27.5304 12.375 27.5312H20.625C22.4564 27.5304 24.2126 26.8025 25.5076 25.5075C26.8026 24.2125 27.5305 22.4564 27.5313 20.625V15.1563C27.5313 14.3354 26.9136 13.7177 26.0875 13.7177H24.75C24.0312 13.7177 23.4063 13.0938 23.4063 12.374C23.4067 11.4666 23.2284 10.5681 22.8815 9.72963C22.5347 8.89119 22.0261 8.12928 21.3848 7.4874C20.7435 6.84552 19.982 6.33624 19.1439 5.98864C18.3058 5.64104 17.4074 5.46192 16.5 5.46151V5.46873ZM20.7271 21.9687H12.375C11.6563 21.9687 11.0313 21.3448 11.0313 20.625C11.0313 19.9052 11.6552 19.2813 12.375 19.2813H20.7271C21.4531 19.2813 22.0708 19.9 22.0708 20.625C22.0708 21.3499 21.4531 21.9687 20.7271 21.9687ZM17.2188 11.0313C17.9448 11.0313 18.5625 11.6552 18.5625 12.375C18.5625 13.0948 17.9448 13.7187 17.2188 13.7187H12.2729C11.5469 13.7187 10.9292 13.0948 10.9292 12.375C10.9292 11.6552 11.5469 11.0313 12.2729 11.0313H17.2188Z" fill="#FF8200"/>
</svg>
