<svg width="34" height="34" viewBox="0 0 34 34" fill="none" xmlns="http://www.w3.org/2000/svg">
<path d="M32.3992 0.750016H3.30075C2.63773 0.746018 1.99951 1.00255 1.52275 1.46467C1.046 1.92679 0.768612 2.55776 0.75 3.22246V32.4774C0.764965 33.1433 1.04121 33.7764 1.51876 34.2393C1.99632 34.7022 2.63665 34.9575 3.30075 34.9498H32.3992C33.0634 34.9575 33.7037 34.7022 34.1812 34.2393C34.6588 33.7764 34.935 33.1433 34.95 32.4774V3.22246C34.9314 2.55776 34.654 1.92679 34.1772 1.46467C33.7005 1.00255 33.0623 0.746018 32.3992 0.750016ZM10.8818 29.9192H5.86575V13.6125H10.8818V29.9192ZM8.43075 11.3401C7.66062 11.3403 6.92094 11.0385 6.36975 10.499C5.81857 9.95958 5.4996 9.22534 5.481 8.45319C5.46705 8.06093 5.53381 7.66998 5.67712 7.30473C5.82042 6.93948 6.0372 6.60774 6.31394 6.33019C6.59068 6.05265 6.92145 5.83524 7.28564 5.69151C7.64983 5.54779 8.03963 5.48084 8.43075 5.49483C9.1758 5.54686 9.87343 5.88039 10.3829 6.42813C10.8923 6.97586 11.1756 7.69701 11.1756 8.44604C11.1756 9.19508 10.8923 9.91622 10.3829 10.464C9.87343 11.0117 9.1758 11.3452 8.43075 11.3973V11.3401ZM29.934 29.8191H24.975V21.8444C24.975 19.9436 24.975 17.4712 22.3245 17.4712C19.674 17.4712 19.275 19.5578 19.275 21.6586V29.7334H14.202V13.6125H18.933V15.7562H19.0328C19.5177 14.9116 20.2247 14.2169 21.0767 13.7481C21.9286 13.2793 22.8927 13.0544 23.8635 13.098C28.9792 13.098 29.934 16.5279 29.934 20.8869V29.8191Z" fill="#FF8200"/>
</svg>
